<svg width="32" height="39" viewBox="0 0 32 39" fill="none" xmlns="http://www.w3.org/2000/svg">
<rect x="8.5" y="6.5" width="23" height="32" fill="white" stroke="black"/>
<mask id="path-2-inside-1_143_59" fill="white">
<path d="M13.137 11.9589C13.2786 12.6599 12.6599 13.2786 11.9589 13.137L9.90769 12.7229C9.90602 12.7226 9.9043 12.7231 9.90309 12.7243C9.90111 12.7263 9.89789 12.7263 9.8959 12.7243L0.707107 3.53554C0.316583 3.14501 0.316582 2.51185 0.707107 2.12132L2.12132 0.70711C2.51184 0.316585 3.14501 0.316585 3.53553 0.70711L12.7243 9.8959C12.7263 9.89789 12.7263 9.90111 12.7243 9.90309C12.7231 9.9043 12.7226 9.90603 12.7229 9.9077L13.137 11.9589Z"/>
</mask>
<path d="M13.137 11.9589C13.2786 12.6599 12.6599 13.2786 11.9589 13.137L9.90769 12.7229C9.90602 12.7226 9.9043 12.7231 9.90309 12.7243C9.90111 12.7263 9.89789 12.7263 9.8959 12.7243L0.707107 3.53554C0.316583 3.14501 0.316582 2.51185 0.707107 2.12132L2.12132 0.70711C2.51184 0.316585 3.14501 0.316585 3.53553 0.70711L12.7243 9.8959C12.7263 9.89789 12.7263 9.90111 12.7243 9.90309C12.7231 9.9043 12.7226 9.90603 12.7229 9.9077L13.137 11.9589Z" fill="#D9D9D9"/>
<path d="M12.7229 9.9077L11.7427 10.1056L12.7229 9.9077ZM9.90769 12.7229L10.1056 11.7427L9.90769 12.7229ZM11.9589 13.137L12.1568 12.1568L10.1056 11.7427L9.90769 12.7229L9.70981 13.7032L11.761 14.1173L11.9589 13.137ZM9.8959 12.7243L10.603 12.0172L1.41421 2.82843L0.707107 3.53554L3.12486e-07 4.24264L9.18879 13.4314L9.8959 12.7243ZM0.707107 2.12132L1.41421 2.82843L2.82843 1.41422L2.12132 0.70711L1.41421 2.92063e-06L-5.96046e-08 1.41422L0.707107 2.12132ZM3.53553 0.70711L2.82843 1.41422L12.0172 10.603L12.7243 9.8959L13.4314 9.1888L4.24264 2.80142e-06L3.53553 0.70711ZM12.7229 9.9077L11.7427 10.1056L12.1568 12.1568L13.137 11.9589L14.1173 11.761L13.7032 9.70981L12.7229 9.9077ZM12.7243 9.90309L12.0172 9.19599C11.7791 9.43407 11.6761 9.77554 11.7427 10.1056L12.7229 9.9077L13.7032 9.70981C13.7691 10.0365 13.6671 10.3745 13.4314 10.6102L12.7243 9.90309ZM12.7243 9.8959L12.0172 10.603C11.6287 10.2145 11.6287 9.58455 12.0172 9.19599L12.7243 9.90309L13.4314 10.6102C13.824 10.2177 13.8239 9.58128 13.4314 9.1888L12.7243 9.8959ZM2.12132 0.70711L2.82843 1.41422V1.41422L3.53553 0.70711L4.24264 2.80142e-06C3.46159 -0.781046 2.19526 -0.781046 1.41421 2.92063e-06L2.12132 0.70711ZM0.707107 3.53554L1.41421 2.82843L1.41421 2.82843L0.707107 2.12132L-5.96046e-08 1.41422C-0.781049 2.19527 -0.781048 3.4616 3.12486e-07 4.24264L0.707107 3.53554ZM9.90309 12.7243L9.19598 12.0172C9.58452 11.6287 10.2145 11.6287 10.603 12.0172L9.8959 12.7243L9.18879 13.4314C9.5813 13.8239 10.2177 13.8239 10.6102 13.4314L9.90309 12.7243ZM9.90769 12.7229L10.1056 11.7427C9.77553 11.6761 9.43406 11.7791 9.19598 12.0172L9.90309 12.7243L10.6102 13.4314C10.3745 13.6671 10.0365 13.7691 9.70981 13.7032L9.90769 12.7229ZM11.9589 13.137L11.761 14.1173C13.163 14.4003 14.4003 13.163 14.1173 11.761L13.137 11.9589L12.1568 12.1568L12.1568 12.1568L11.9589 13.137Z" fill="black" mask="url(#path-2-inside-1_143_59)"/>
<line x1="2.47482" y1="3.88909" x2="3.88903" y2="2.47488" stroke="black"/>
<line x1="10.253" y1="11.6673" x2="11.6672" y2="10.253" stroke="black"/>
<line x1="14" y1="13.5" x2="26" y2="13.5" stroke="black"/>
<path d="M15.2109 23.0406C15.2088 23.0911 15.217 23.1414 15.235 23.1886C15.2531 23.2358 15.2806 23.2788 15.3158 23.3149C15.3511 23.3511 15.3934 23.3796 15.4401 23.3988C15.4868 23.418 15.537 23.4275 15.5875 23.4266H16.8765C17.0922 23.4266 17.264 23.25 17.2922 23.0359C17.4328 22.0109 18.1359 21.2641 19.389 21.2641C20.4609 21.2641 21.4422 21.8 21.4422 23.0891C21.4422 24.0812 20.8578 24.5375 19.9343 25.2313C18.8828 25.9953 18.05 26.8875 18.1093 28.3359L18.114 28.675C18.1157 28.7775 18.1575 28.8753 18.2306 28.9472C18.3037 29.0191 18.4021 29.0594 18.5047 29.0594H19.7718C19.8754 29.0594 19.9748 29.0182 20.0481 28.945C20.1213 28.8717 20.1625 28.7723 20.1625 28.6687V28.5047C20.1625 27.3828 20.589 27.0562 21.7406 26.1828C22.6922 25.4594 23.6843 24.6563 23.6843 22.9703C23.6843 20.6094 21.6906 19.4688 19.5078 19.4688C17.5281 19.4688 15.3593 20.3906 15.2109 23.0406ZM17.6437 32.0453C17.6437 32.8781 18.3078 33.4937 19.2218 33.4937C20.1734 33.4937 20.8281 32.8781 20.8281 32.0453C20.8281 31.1828 20.1718 30.5766 19.2203 30.5766C18.3078 30.5766 17.6437 31.1828 17.6437 32.0453Z" fill="black"/>
</svg>
