<svg width="37" height="37" viewBox="0 0 37 37" fill="none" xmlns="http://www.w3.org/2000/svg">
<rect x="13.5" y="0.5" width="23" height="32" fill="white" stroke="black"/>
<rect x="11.5" y="2.5" width="23" height="32" fill="white" stroke="black"/>
<rect x="9.50012" y="4.5" width="23" height="32" fill="white" stroke="black"/>
<line x1="15.0001" y1="11.5" x2="27.0001" y2="11.5" stroke="black"/>
<path d="M16.211 21.0406C16.2089 21.0911 16.2171 21.1414 16.2351 21.1886C16.2532 21.2358 16.2807 21.2788 16.316 21.3149C16.3512 21.3511 16.3935 21.3796 16.4402 21.3988C16.4869 21.418 16.5371 21.4275 16.5876 21.4266H17.8767C18.0923 21.4266 18.2642 21.25 18.2923 21.0359C18.4329 20.0109 19.136 19.2641 20.3892 19.2641C21.461 19.2641 22.4423 19.8 22.4423 21.0891C22.4423 22.0812 21.8579 22.5375 20.9345 23.2313C19.8829 23.9953 19.0501 24.8875 19.1095 26.3359L19.1142 26.675C19.1158 26.7775 19.1577 26.8753 19.2307 26.9472C19.3038 27.0191 19.4022 27.0594 19.5048 27.0594H20.772C20.8756 27.0594 20.9749 27.0182 21.0482 26.945C21.1214 26.8717 21.1626 26.7723 21.1626 26.6687V26.5047C21.1626 25.3828 21.5892 25.0562 22.7407 24.1828C23.6923 23.4594 24.6845 22.6563 24.6845 20.9703C24.6845 18.6094 22.6907 17.4688 20.5079 17.4688C18.5282 17.4688 16.3595 18.3906 16.211 21.0406ZM18.6438 30.0453C18.6438 30.8781 19.3079 31.4937 20.222 31.4937C21.1735 31.4937 21.8282 30.8781 21.8282 30.0453C21.8282 29.1828 21.172 28.5766 20.2204 28.5766C19.3079 28.5766 18.6438 29.1828 18.6438 30.0453Z" fill="black"/>
<circle cx="12.0929" cy="13.035" r="4.5" transform="rotate(39.2139 12.0929 13.035)" fill="white" stroke="black"/>
<line x1="8.93176" y1="16.909" x2="4.50623" y2="22.3325" stroke="black" stroke-width="2" stroke-linecap="round"/>
</svg>
