<svg width="32" height="39" viewBox="0 0 32 39" fill="none" xmlns="http://www.w3.org/2000/svg">
<rect x="8.5" y="6.5" width="23" height="32" fill="white" stroke="black"/>
<g clip-path="url(#clip0_143_43)">
<path d="M20.186 20.113C20.0666 20.0652 19.9334 20.0652 19.814 20.113L13.846 22.5L16.25 23.461L22.404 21L20.186 20.113ZM23.75 21.539L17.596 24L20 24.961L26.154 22.5L23.75 21.539ZM27 23.239L20.5 25.839V33.761L27 31.161V23.239ZM19.5 33.762V25.838L13 23.239V31.162L19.5 33.762ZM19.443 19.184C19.8006 19.041 20.1994 19.041 20.557 19.184L27.686 22.036C27.7787 22.0731 27.8581 22.1372 27.9141 22.2199C27.9701 22.3026 28 22.4001 28 22.5V31.162C27.9999 31.3618 27.9399 31.557 27.8278 31.7224C27.7157 31.8878 27.5566 32.0159 27.371 32.09L20.186 34.964C20.0666 35.0118 19.9334 35.0118 19.814 34.964L12.63 32.09C12.4443 32.016 12.2849 31.8881 12.1726 31.7226C12.0603 31.5572 12.0002 31.3619 12 31.162V22.5C12 22.4001 12.0299 22.3026 12.0859 22.2199C12.1419 22.1372 12.2213 22.0731 12.314 22.036L19.443 19.184Z" fill="black"/>
</g>
<mask id="path-3-inside-1_143_43" fill="white">
<path d="M13.137 11.9589C13.2786 12.6599 12.6599 13.2786 11.9589 13.137L9.90769 12.7229C9.90602 12.7226 9.9043 12.7231 9.90309 12.7243C9.90111 12.7263 9.89789 12.7263 9.8959 12.7243L0.707107 3.53554C0.316583 3.14501 0.316582 2.51185 0.707107 2.12132L2.12132 0.70711C2.51184 0.316585 3.14501 0.316585 3.53553 0.70711L12.7243 9.8959C12.7263 9.89789 12.7263 9.90111 12.7243 9.90309C12.7231 9.9043 12.7226 9.90603 12.7229 9.9077L13.137 11.9589Z"/>
</mask>
<path d="M13.137 11.9589C13.2786 12.6599 12.6599 13.2786 11.9589 13.137L9.90769 12.7229C9.90602 12.7226 9.9043 12.7231 9.90309 12.7243C9.90111 12.7263 9.89789 12.7263 9.8959 12.7243L0.707107 3.53554C0.316583 3.14501 0.316582 2.51185 0.707107 2.12132L2.12132 0.70711C2.51184 0.316585 3.14501 0.316585 3.53553 0.70711L12.7243 9.8959C12.7263 9.89789 12.7263 9.90111 12.7243 9.90309C12.7231 9.9043 12.7226 9.90603 12.7229 9.9077L13.137 11.9589Z" fill="#D9D9D9"/>
<path d="M12.7229 9.9077L11.7427 10.1056L12.7229 9.9077ZM9.90769 12.7229L10.1056 11.7427L9.90769 12.7229ZM11.9589 13.137L12.1568 12.1568L10.1056 11.7427L9.90769 12.7229L9.70981 13.7032L11.761 14.1173L11.9589 13.137ZM9.8959 12.7243L10.603 12.0172L1.41421 2.82843L0.707107 3.53554L3.12486e-07 4.24264L9.18879 13.4314L9.8959 12.7243ZM0.707107 2.12132L1.41421 2.82843L2.82843 1.41422L2.12132 0.70711L1.41421 2.92063e-06L-5.96046e-08 1.41422L0.707107 2.12132ZM3.53553 0.70711L2.82843 1.41422L12.0172 10.603L12.7243 9.8959L13.4314 9.1888L4.24264 2.80142e-06L3.53553 0.70711ZM12.7229 9.9077L11.7427 10.1056L12.1568 12.1568L13.137 11.9589L14.1173 11.761L13.7032 9.70981L12.7229 9.9077ZM12.7243 9.90309L12.0172 9.19599C11.7791 9.43407 11.6761 9.77554 11.7427 10.1056L12.7229 9.9077L13.7032 9.70981C13.7691 10.0365 13.6671 10.3745 13.4314 10.6102L12.7243 9.90309ZM12.7243 9.8959L12.0172 10.603C11.6287 10.2145 11.6287 9.58455 12.0172 9.19599L12.7243 9.90309L13.4314 10.6102C13.824 10.2177 13.8239 9.58128 13.4314 9.1888L12.7243 9.8959ZM2.12132 0.70711L2.82843 1.41422V1.41422L3.53553 0.70711L4.24264 2.80142e-06C3.46159 -0.781046 2.19526 -0.781046 1.41421 2.92063e-06L2.12132 0.70711ZM0.707107 3.53554L1.41421 2.82843L1.41421 2.82843L0.707107 2.12132L-5.96046e-08 1.41422C-0.781049 2.19527 -0.781048 3.4616 3.12486e-07 4.24264L0.707107 3.53554ZM9.90309 12.7243L9.19598 12.0172C9.58452 11.6287 10.2145 11.6287 10.603 12.0172L9.8959 12.7243L9.18879 13.4314C9.5813 13.8239 10.2177 13.8239 10.6102 13.4314L9.90309 12.7243ZM9.90769 12.7229L10.1056 11.7427C9.77553 11.6761 9.43406 11.7791 9.19598 12.0172L9.90309 12.7243L10.6102 13.4314C10.3745 13.6671 10.0365 13.7691 9.70981 13.7032L9.90769 12.7229ZM11.9589 13.137L11.761 14.1173C13.163 14.4003 14.4003 13.163 14.1173 11.761L13.137 11.9589L12.1568 12.1568L12.1568 12.1568L11.9589 13.137Z" fill="black" mask="url(#path-3-inside-1_143_43)"/>
<line x1="2.47482" y1="3.88909" x2="3.88903" y2="2.47488" stroke="black"/>
<line x1="10.253" y1="11.6673" x2="11.6672" y2="10.253" stroke="black"/>
<line x1="14" y1="13.5" x2="26" y2="13.5" stroke="black"/>
<defs>
<clipPath id="clip0_143_43">
<rect width="16" height="16" fill="white" transform="translate(12 19)"/>
</clipPath>
</defs>
</svg>
