<svg width="37" height="37" viewBox="0 0 37 37" fill="none" xmlns="http://www.w3.org/2000/svg">
<rect x="13.5" y="0.5" width="23" height="32" fill="white" stroke="black"/>
<rect x="11.5" y="2.5" width="23" height="32" fill="white" stroke="black"/>
<rect x="9.5" y="4.5" width="23" height="32" fill="white" stroke="black"/>
<g clip-path="url(#clip0_143_60)">
<path d="M21.186 18.113C21.0666 18.0652 20.9334 18.0652 20.814 18.113L14.846 20.5L17.25 21.461L23.404 19L21.186 18.113ZM24.75 19.539L18.596 22L21 22.961L27.154 20.5L24.75 19.539ZM28 21.239L21.5 23.839V31.761L28 29.161V21.239ZM20.5 31.762V23.838L14 21.239V29.162L20.5 31.762ZM20.443 17.184C20.8006 17.041 21.1994 17.041 21.557 17.184L28.686 20.036C28.7787 20.0731 28.8581 20.1372 28.9141 20.2199C28.9701 20.3026 29 20.4001 29 20.5V29.162C28.9999 29.3618 28.9399 29.557 28.8278 29.7224C28.7157 29.8878 28.5566 30.0159 28.371 30.09L21.186 32.964C21.0666 33.0118 20.9334 33.0118 20.814 32.964L13.63 30.09C13.4443 30.016 13.2849 29.8881 13.1726 29.7226C13.0603 29.5572 13.0002 29.3619 13 29.162V20.5C13 20.4001 13.0299 20.3026 13.0859 20.2199C13.1419 20.1372 13.2213 20.0731 13.314 20.036L20.443 17.184Z" fill="black"/>
</g>
<line x1="15" y1="11.5" x2="27" y2="11.5" stroke="black"/>
<circle cx="12.0927" cy="13.035" r="4.5" transform="rotate(39.2139 12.0927 13.035)" fill="white" stroke="black"/>
<line x1="8.93164" y1="16.909" x2="4.50611" y2="22.3325" stroke="black" stroke-width="2" stroke-linecap="round"/>
<defs>
<clipPath id="clip0_143_60">
<rect width="16" height="16" fill="white" transform="translate(13 17)"/>
</clipPath>
</defs>
</svg>
